<svg xmlns="http://www.w3.org/2000/svg" viewBox="0 0 77.79 66.19"><defs><style>.cls-1{fill:#fff3ba;}.cls-2{fill:#fbb03b;}.cls-3{fill:#ffdf49;}.cls-4{fill:#1b1464;}</style></defs><g id="Layer_2" data-name="Layer 2"><g id="Layer_1-2" data-name="Layer 1"><path class="cls-1" d="M27.23,46.36,7.79,66.19H2.53L25.76,43.73Z"/><path class="cls-2" d="M45.33,13.66a9.25,9.25,0,0,1,.31-4.8,8,8,0,0,0-3-.15c-.91.12-1.63.23-1.92.79-.36.71.23,1.63.32,1.76,4,4.53,5.08,5.42,5.27,5.27S45.69,15.34,45.33,13.66Z"/><path class="cls-3" d="M45.84,17.49,0,64.29c1,.08,2,.14,3,.2s2.3.1,3.4.12L25.56,45c.23.33.56.8,1,1.34a27.37,27.37,0,0,0,8.42,7,27.75,27.75,0,0,0,13.73,3A29.24,29.24,0,0,0,61,53.43a29.69,29.69,0,0,0,9.27-7c7.59-8.63,7.55-19.12,7.5-21.08,0-2.26-.34-15.29-9.9-21.89C66.27,2.32,61.6-.9,55.74.24c-.77.15-6.42,1.34-9.26,6.55a14.39,14.39,0,0,0-1.17,3A12.52,12.52,0,0,0,45,14.61,12.22,12.22,0,0,0,45.84,17.49Z"/><circle id="Ellipse_78" data-name="Ellipse 78" class="cls-4" cx="54.46" cy="10.05" r="1.89"/><path class="cls-1" d="M67.32,20l-26.22,28c1.15.45,11.06,4.06,19.69-1.6,7.89-5.18,11.61-16.07,8.46-23.34A12.62,12.62,0,0,0,67.32,20Z"/></g></g></svg>