<svg xmlns="http://www.w3.org/2000/svg" width="99.352" height="77.495" viewBox="0 0 99.352 77.495">
  <g id="Group_321" data-name="Group 321" transform="translate(-145.324 -54.505)">
    <path id="bird" d="M101.352,41.762l-14.43-5.153a18.174,18.174,0,0,0-4.305-8.254,20.345,20.345,0,0,0-28.055,0l-7,6.749L16.193,3c-4.731,18.241,0,36.482,11.591,51.166L2,78.243s42.059,9.12,66.566-9.348C81.624,59.045,84.557,53.3,86.4,47.234l14.95-5.472m-25.027,1a4.9,4.9,0,0,1-6.718,0,4.426,4.426,0,0,1,0-6.43,4.9,4.9,0,0,1,6.718,0A4.426,4.426,0,0,1,76.325,42.765Z" transform="translate(143.324 51.505)" fill="rgba(172,151,206,0.1)"/>
    <circle id="Ellipse_78" data-name="Ellipse 78" cx="3" cy="3" r="3" transform="translate(213 88)" fill="rgba(240,217,45,0.64)"/>
  </g>
</svg>
