<svg xmlns="http://www.w3.org/2000/svg" width="391.222" height="844.107" viewBox="0 0 391.222 844.107">
  <g id="Group_1" data-name="Group 1" transform="translate(-844.721 -12.252)">
    <g id="Group_366" data-name="Group 366" transform="translate(845.44 12.359)">
      <rect id="Rectangle_1719" data-name="Rectangle 1719" width="390" height="844" fill="rgba(8,30,58,0.69)"/>
      <path id="Path_423" data-name="Path 423" d="M397.99,886.182H7.99V334.11c0-58.353,1.609-140.342,0-193.687.619-20.568-1.594-36.886,3.916-45.647C41.757,47.308,75.3,33.611,125,46.869c60.39,33.722,48.83,107.546,108.311,137.2,38.152-.548,104.647,19.837,135.846,83.648,36.78,75.225,28.828,66.39,28.828,66.39Z" transform="translate(-8.71 -42.182)" fill="#081e3a" opacity="0.335"/>
      <path id="Path_424" data-name="Path 424" d="M391,860.184H1S-.484,406.648,1,160.368C1.112,141.8-1.316,26.359,1,18.107c.445-1.594,43.68-2.081,68.486,0,11.64.976-4.62-4.449,13.234,4.368,54.6,26.962,72.88,112.5,119.68,110.614,44.131-1.776,106.432-25.948,139.361,14.237S391,292.431,391,292.431Z" transform="translate(-0.498 -16.184)" fill="#081e3a" opacity="0.526"/>
    </g>
  </g>
</svg>
