<svg xmlns="http://www.w3.org/2000/svg" viewBox="0 0 390 844"><defs><style>.cls-1{fill:#494f5b;opacity:0.69;}.cls-2,.cls-3{fill:#0a1e39;isolation:isolate;}.cls-2{opacity:0.34;}.cls-3{opacity:0.53;}</style></defs><g id="Layer_2" data-name="Layer 2"><g id="Layer_1-2" data-name="Layer 1"><g id="Group_374" data-name="Group 374"><g id="Group_366" data-name="Group 366"><rect id="Rectangle_1719" data-name="Rectangle 1719" class="cls-1" width="390" height="844"/><path id="Path_423" data-name="Path 423" class="cls-2" d="M390,842.12H1.4L1.48,0H121.19a124.84,124.84,0,0,1,32.5,17.6c21.05,15.94,24.76,29.09,45.41,43.08,7.69,5.21,17.3,9.76,30.42,13.18,65.39,15.83,114.06,32.27,133.74,43,7.14,3.88,19.91,11,24.41,24.86a34.28,34.28,0,0,1,1.49,13.47Z"/><path id="Path_424" data-name="Path 424" class="cls-3" d="M389,842.12H1.4Q.7,426.5,0,10.86C40.16-2.42,66.68,2.24,83.62,9.14c32.31,13.16,46.92,36.69,91.94,52.21a76.49,76.49,0,0,0,27,3.85c43.86-.9,105.78-13.15,138.5,7.21S390,146,390,146Q389.51,494,389,842.12Z"/></g></g></g></g></svg>