<svg xmlns="http://www.w3.org/2000/svg" xmlns:xlink="http://www.w3.org/1999/xlink" width="390" height="844" viewBox="0 0 390 844">
  <defs>
    <clipPath id="clip-_1.1_Home_Screen_57">
      <rect width="390" height="844"/>
    </clipPath>
  </defs>
  <g id="_1.1_Home_Screen_57" data-name="1.1 Home Screen – 57" clip-path="url(#clip-_1.1_Home_Screen_57)">
    <rect id="Rectangle_1719" data-name="Rectangle 1719" width="390" height="844" fill="rgba(8,30,58,0.69)"/>
    <path id="Path_423" data-name="Path 423" d="M-.011,0H388.55V268.862c0,39.525,19.536,75.158,0,90.343-29.741,23.118-70.675,44.767-119.38,48.438-58.253,4.391-118.645-22.8-171.684-15.633C.346,405.134-3.093,450.949-3.093,450.949Z" transform="translate(3.093 -3.449)" fill="#081e3a" opacity="0.313"/>
    <path id="Path_424" data-name="Path 424" d="M0,0H390V286.486c0,39.378,35.313,97.765,23.742,118.65-.661,1.2-17.09,19.9-18.364,20.952-21.632,17.851-59.561-29.6-120.848-32.25-62.346-3.853-101.827,34.866-167.249,44.25-93.706,2.819-108.892-57.4-108.892-57.4Z" transform="translate(0 -13.5)" fill="#081e3a" opacity="0.53"/>
  </g>
</svg>
